<svg data-v-d3f97b9e="" xmlns="http://www.w3.org/2000/svg" viewBox="0 0 614 105"><!----><!----><!----><g data-v-d3f97b9e="" id="9047efe5-3622-4ce5-8a12-dc79395005de" fill="#ffffff" transform="matrix(5.102040717026833,0,0,5.102040717026833,107.65561181741268,9.87141148600167)"><path d="M5.00 14.18L5.00 14.18Q3.70 14.18 2.44 13.44L2.44 13.44L1.25 14.04L0.94 14.04L0.94 10.44L1.25 10.44L2.45 13.05L2.45 13.05Q3.61 13.87 5.11 13.87L5.11 13.87L5.11 13.87Q6.34 13.87 7.15 13.22L7.15 13.22L7.15 13.22Q7.95 12.57 7.95 11.40L7.95 11.40L7.95 11.40Q7.95 10.54 7.43 10.05L7.43 10.05L7.43 10.05Q6.92 9.55 5.75 9.25L5.75 9.25L3.43 8.65L3.43 8.65Q2.21 8.33 1.60 7.55L1.60 7.55L1.60 7.55Q0.98 6.78 0.98 5.71L0.98 5.71L0.98 5.71Q0.98 4.75 1.36 4.00L1.36 4.00L1.36 4.00Q1.75 3.25 2.49 2.84L2.49 2.84L2.49 2.84Q3.23 2.42 4.26 2.42L4.26 2.42L4.26 2.42Q5.53 2.42 6.54 2.86L6.54 2.86L7.56 2.42L7.87 2.42L7.87 5.28L7.56 5.28L6.55 3.23L6.55 3.23Q5.50 2.73 4.27 2.73L4.27 2.73L4.27 2.73Q3.05 2.73 2.35 3.35L2.35 3.35L2.35 3.35Q1.65 3.98 1.65 5.00L1.65 5.00L1.65 5.00Q1.65 5.75 2.15 6.19L2.15 6.19L2.15 6.19Q2.65 6.62 3.61 6.87L3.61 6.87L6.12 7.53L6.12 7.53Q7.34 7.84 7.93 8.59L7.93 8.59L7.93 8.59Q8.53 9.34 8.53 10.86L8.53 10.86L8.53 10.86Q8.53 12.42 7.57 13.30L7.57 13.30L7.57 13.30Q6.61 14.18 5.00 14.18L5.00 14.18ZM16.28 13.90L12.17 13.90L12.17 13.61L13.45 13.40L13.45 3.05L11.14 3.05L10.08 5.82L9.67 5.82L9.67 2.70L18.79 2.70L18.79 5.82L18.37 5.82L17.32 3.05L14.99 3.05L14.99 13.40L16.28 13.61L16.28 13.90ZM25.16 14.18L25.16 14.18Q23.63 14.18 22.43 13.44L22.43 13.44L22.43 13.44Q21.22 12.70 20.55 11.36L20.55 11.36L20.55 11.36Q19.88 10.02 19.88 8.30L19.88 8.30L19.88 8.30Q19.88 6.58 20.55 5.24L20.55 5.24L20.55 5.24Q21.22 3.91 22.43 3.16L22.43 3.16L22.43 3.16Q23.63 2.42 25.16 2.42L25.16 2.42L25.16 2.42Q26.68 2.42 27.89 3.16L27.89 3.16L27.89 3.16Q29.09 3.91 29.76 5.24L29.76 5.24L29.76 5.24Q30.44 6.58 30.44 8.30L30.44 8.30L30.44 8.30Q30.44 10.02 29.76 11.36L29.76 11.36L29.76 11.36Q29.09 12.70 27.89 13.44L27.89 13.44L27.89 13.44Q26.68 14.18 25.16 14.18L25.16 14.18ZM25.16 13.86L25.16 13.86Q26.17 13.86 26.97 13.33L26.97 13.33L26.97 13.33Q27.78 12.80 28.24 11.78L28.24 11.78L28.24 11.78Q28.70 10.77 28.70 9.38L28.70 9.38L28.70 7.22L28.70 7.22Q28.70 5.84 28.24 4.82L28.24 4.82L28.24 4.82Q27.78 3.81 26.97 3.28L26.97 3.28L26.97 3.28Q26.17 2.74 25.16 2.74L25.16 2.74L25.16 2.74Q24.14 2.74 23.34 3.28L23.34 3.28L23.34 3.28Q22.54 3.81 22.08 4.82L22.08 4.82L22.08 4.82Q21.62 5.84 21.62 7.22L21.62 7.22L21.62 9.38L21.62 9.38Q21.62 10.77 22.08 11.78L22.08 11.78L22.08 11.78Q22.54 12.80 23.34 13.33L23.34 13.33L23.34 13.33Q24.14 13.86 25.16 13.86L25.16 13.86ZM39.89 14.04L39.89 14.04Q39.10 14.04 38.71 13.66L38.71 13.66L38.71 13.66Q38.32 13.29 38.18 12.38L38.18 12.38L37.91 10.50L37.91 10.50Q37.77 9.55 37.26 9.01L37.26 9.01L37.26 9.01Q36.75 8.47 35.67 8.47L35.67 8.47L34.58 8.47L34.58 13.40L35.87 13.61L35.87 13.90L31.75 13.90L31.75 13.61L33.04 13.40L33.04 3.21L31.75 3.01L31.75 2.70L35.67 2.70L35.67 2.70Q37.95 2.70 38.98 3.42L38.98 3.42L38.98 3.42Q40.00 4.13 40.00 5.59L40.00 5.59L40.00 5.59Q40.00 7.99 37.09 8.37L37.09 8.37L37.09 8.46L37.09 8.46Q38.16 8.61 38.81 9.23L38.81 9.23L38.81 9.23Q39.47 9.84 39.63 10.86L39.63 10.86L39.82 12.07L39.82 12.07Q39.93 12.85 40.08 13.13L40.08 13.13L40.08 13.13Q40.22 13.41 40.53 13.41L40.53 13.41L40.53 13.41Q40.74 13.41 40.98 13.28L40.98 13.28L40.98 13.28Q41.22 13.15 41.43 12.94L41.43 12.94L41.66 13.19L41.66 13.19Q41.26 13.65 40.82 13.85L40.82 13.85L40.82 13.85Q40.39 14.04 39.89 14.04L39.89 14.04ZM34.58 8.13L36.15 8.13L36.15 8.13Q37.17 8.13 37.74 7.51L37.74 7.51L37.74 7.51Q38.30 6.89 38.30 5.67L38.30 5.67L38.30 5.38L38.30 5.38Q38.30 3.05 35.67 3.05L35.67 3.05L34.58 3.05L34.58 8.13ZM48.23 13.90L44.11 13.90L44.11 13.61L45.42 13.40L45.42 9.14L42.01 3.21L40.91 3.01L40.91 2.70L45.12 2.70L45.12 3.01L43.82 3.21L46.76 8.29L49.46 3.68L47.78 3.01L47.78 2.70L50.92 2.70L50.92 3.01L49.84 3.70L46.93 8.68L46.93 13.40L48.23 13.61L48.23 13.90ZM54.47 13.90L54.47 13.61L55.76 13.40L55.76 3.21L54.47 3.01L54.47 2.70L58.74 2.70L58.74 2.70Q60.26 2.70 61.15 2.98L61.15 2.98L61.15 2.98Q62.05 3.26 62.45 3.83L62.45 3.83L62.45 3.83Q62.86 4.40 62.86 5.32L62.86 5.32L62.86 5.32Q62.86 7.34 60.31 7.90L60.31 7.90L60.31 7.97L60.31 7.97Q61.87 8.18 62.73 8.89L62.73 8.89L62.73 8.89Q63.59 9.60 63.59 10.88L63.59 10.88L63.59 10.88Q63.59 12.42 62.46 13.16L62.46 13.16L62.46 13.16Q61.33 13.90 59.42 13.90L59.42 13.90L54.47 13.90ZM57.30 7.85L58.86 7.85L58.86 7.85Q59.98 7.85 60.58 7.22L60.58 7.22L60.58 7.22Q61.18 6.59 61.18 5.43L61.18 5.43L61.18 5.35L61.18 5.35Q61.18 3.05 58.74 3.05L58.74 3.05L57.30 3.05L57.30 7.85ZM57.30 13.57L59.42 13.57L59.42 13.57Q60.61 13.57 61.26 12.87L61.26 12.87L61.26 12.87Q61.92 12.18 61.92 10.89L61.92 10.89L61.92 10.74L61.92 10.74Q61.92 9.46 61.27 8.83L61.27 8.83L61.27 8.83Q60.62 8.20 59.42 8.20L59.42 8.20L57.30 8.20L57.30 13.57ZM70.38 14.18L70.38 14.18Q68.85 14.18 67.65 13.44L67.65 13.44L67.65 13.44Q66.44 12.70 65.77 11.36L65.77 11.36L65.77 11.36Q65.10 10.02 65.10 8.30L65.10 8.30L65.10 8.30Q65.10 6.58 65.77 5.24L65.77 5.24L65.77 5.24Q66.44 3.91 67.65 3.16L67.65 3.16L67.65 3.16Q68.85 2.42 70.38 2.42L70.38 2.42L70.38 2.42Q71.90 2.42 73.11 3.16L73.11 3.16L73.11 3.16Q74.31 3.91 74.98 5.24L74.98 5.24L74.98 5.24Q75.66 6.58 75.66 8.30L75.66 8.30L75.66 8.30Q75.66 10.02 74.98 11.36L74.98 11.36L74.98 11.36Q74.31 12.70 73.11 13.44L73.11 13.44L73.11 13.44Q71.90 14.18 70.38 14.18L70.38 14.18ZM70.38 13.86L70.38 13.86Q71.39 13.86 72.19 13.33L72.19 13.33L72.19 13.33Q73.00 12.80 73.46 11.78L73.46 11.78L73.46 11.78Q73.92 10.77 73.92 9.38L73.92 9.38L73.92 7.22L73.92 7.22Q73.92 5.84 73.46 4.82L73.46 4.82L73.46 4.82Q73.00 3.81 72.19 3.28L72.19 3.28L72.19 3.28Q71.39 2.74 70.38 2.74L70.38 2.74L70.38 2.74Q69.36 2.74 68.56 3.28L68.56 3.28L68.56 3.28Q67.76 3.81 67.30 4.82L67.30 4.82L67.30 4.82Q66.84 5.84 66.84 7.22L66.84 7.22L66.84 9.38L66.84 9.38Q66.84 10.77 67.30 11.78L67.30 11.78L67.30 11.78Q67.76 12.80 68.56 13.33L68.56 13.33L68.56 13.33Q69.36 13.86 70.38 13.86L70.38 13.86ZM82.45 14.18L82.45 14.18Q80.92 14.18 79.72 13.44L79.72 13.44L79.72 13.44Q78.51 12.70 77.84 11.36L77.84 11.36L77.84 11.36Q77.17 10.02 77.17 8.30L77.17 8.30L77.17 8.30Q77.17 6.58 77.84 5.24L77.84 5.24L77.84 5.24Q78.51 3.91 79.72 3.16L79.72 3.16L79.72 3.16Q80.92 2.42 82.45 2.42L82.45 2.42L82.45 2.42Q83.97 2.42 85.18 3.16L85.18 3.16L85.18 3.16Q86.38 3.91 87.05 5.24L87.05 5.24L87.05 5.24Q87.72 6.58 87.72 8.30L87.72 8.30L87.72 8.30Q87.72 10.02 87.05 11.36L87.05 11.36L87.05 11.36Q86.38 12.70 85.18 13.44L85.18 13.44L85.18 13.44Q83.97 14.18 82.45 14.18L82.45 14.18ZM82.45 13.86L82.45 13.86Q83.45 13.86 84.26 13.33L84.26 13.33L84.26 13.33Q85.06 12.80 85.53 11.78L85.53 11.78L85.53 11.78Q85.99 10.77 85.99 9.38L85.99 9.38L85.99 7.22L85.99 7.22Q85.99 5.84 85.53 4.82L85.53 4.82L85.53 4.82Q85.06 3.81 84.26 3.28L84.26 3.28L84.26 3.28Q83.45 2.74 82.45 2.74L82.45 2.74L82.45 2.74Q81.42 2.74 80.63 3.28L80.63 3.28L80.63 3.28Q79.83 3.81 79.37 4.82L79.37 4.82L79.37 4.82Q78.90 5.84 78.90 7.22L78.90 7.22L78.90 9.38L78.90 9.38Q78.90 10.77 79.37 11.78L79.37 11.78L79.37 11.78Q79.83 12.80 80.63 13.33L80.63 13.33L80.63 13.33Q81.42 13.86 82.45 13.86L82.45 13.86ZM93.16 13.90L89.04 13.90L89.04 13.61L90.33 13.40L90.33 3.21L89.04 3.01L89.04 2.70L93.16 2.70L93.16 3.01L91.87 3.21L91.87 8.25L96.42 3.60L94.89 3.01L94.89 2.70L98.13 2.70L98.13 3.01L96.98 3.60L93.80 6.79L98.28 13.40L99.23 13.61L99.23 13.90L95.10 13.90L95.10 13.61L96.38 13.41L92.71 7.88L91.87 8.74L91.87 13.40L93.16 13.61L93.16 13.90Z"></path></g><!----><g data-v-d3f97b9e="" id="092590b3-8847-4a10-ae30-a0b531591e02" transform="matrix(1.0772222730848524,0,0,1.0772222730848524,-6.757903611971656,-0.30499508185473445)" stroke="none" fill="#48A9DC"><path d="M64.008 72.381c4.002-3.149 12.23-11.582 15.089-21.179-6.511-8.01-33.912-42.187-40.238-50.08-.647 7.491-7.229 23.255-18.649 28.524-5.247 2.56-10.477 4.156-12.467 4.721l39.077 47.32c4.415-1.424 13.138-6.127 17.188-9.306zM90.405 75.352c-6.5 3.781-13.381 7.281-20.674 9.929-8.632 3.134-19.05 6.681-22.386 7.664v5.127l43.046-15.479.014-7.241zM6.891 35.865v14.223l38.812 47.857.033-15.043z"></path><path d="M88.717 70.42c-5.018 3.936-11.386 7.921-18.278 11.363-6.521 3.266-20.879 7.668-23.093 8.339v1.144c3.686-1.09 13.036-3.898 21.237-7.013 9.104-3.457 22.12-11.628 22.12-11.628l-1.986-2.205zM80.877 50.835l-.114.403c-2.851 10.142-11.25 18.858-15.762 22.409-4.225 3.319-13.009 8.054-17.655 9.561v2.168c6.53-2.034 15.656-6.36 20.721-9.922 8.699-6.128 17.195-14.63 22.419-22.404l.047.036C84.648 46.442 51.938 9.001 49.818 6.309c-.719 1.357-1.368 2.265-2.422 2.887C58.228 22.704 75.994 44.843 80.613 50.51l.264.325z"></path><path d="M87.321 59.925s-11.588 12.1-18.328 16.846c-5.696 4.008-14.5 7.942-21.647 10.168v1.498c.692-.212 1.838-.566 3.268-1.021 5.266-1.677 14.41-4.722 19.106-7.072 9.305-4.648 17.623-10.274 22.834-15.386l.161-.16-5.394-4.873z"></path></g><!----></svg>