<?xml version="1.0" standalone="no"?><svg xmlns="http://www.w3.org/2000/svg" viewBox="0 0 1440 320"><path fill="#333453" fill-opacity="1" d="M0,160L40,149.3C80,139,160,117,240,144C320,171,400,245,480,234.7C560,224,640,128,720,112C800,96,880,160,960,197.3C1040,235,1120,245,1200,213.3C1280,181,1360,107,1400,69.3L1440,32L1440,320L1400,320C1360,320,1280,320,1200,320C1120,320,1040,320,960,320C880,320,800,320,720,320C640,320,560,320,480,320C400,320,320,320,240,320C160,320,80,320,40,320L0,320Z"></path></svg>